<svg width="192" height="40" viewBox="0 0 192 40" fill="none" xmlns="http://www.w3.org/2000/svg">
<path d="M57.4887 12.9221H60.8708V28.3192H68.1037V31.524H57.4887V12.9196V12.9221Z" fill="#1E1E1E"/>
<path d="M76.3309 31.9077C72.376 31.9077 69.4699 29.0013 69.4699 25.0793C69.4699 21.1573 72.3288 18.1481 75.9986 18.1481C79.6684 18.1481 82.1702 21.0796 82.1702 24.9263C82.1702 25.3075 82.1454 25.794 82.0983 26.278H72.9264C73.2364 27.8578 74.4514 28.8784 76.2614 28.8784C77.5012 28.8784 78.3815 28.3945 79.2642 27.2735L81.7661 29.2621C80.5263 30.9698 78.5972 31.9127 76.3333 31.9127L76.3309 31.9077ZM78.808 23.5998C78.617 22.1227 77.5211 21.1272 75.9738 21.1272C74.4266 21.1272 73.4 22.1729 73.0206 23.5998H78.8104H78.808Z" fill="#1E1E1E"/>
<path d="M97.2237 31.524H94.2457V30.378C93.1745 31.346 91.7909 31.9077 90.2908 31.9077C86.7897 31.9077 83.9778 28.8509 83.9778 25.0266C83.9778 21.2024 86.7897 18.1456 90.2908 18.1456C91.7909 18.1456 93.1745 18.7073 94.2457 19.6753V18.5292H97.2237V31.5266V31.524ZM90.695 28.7982C92.577 28.7982 94.0771 27.1682 94.0771 25.0266C94.0771 22.8851 92.577 21.2551 90.695 21.2551C88.813 21.2551 87.2881 22.8851 87.2881 25.0266C87.2881 27.1682 88.7882 28.7982 90.695 28.7982Z" fill="#1E1E1E"/>
<path d="M105.751 18.1456C107.182 18.1456 108.491 18.6546 109.54 19.5223V12.097H112.885V31.524H109.755V30.3254C108.682 31.3184 107.278 31.9052 105.753 31.9052C102.252 31.9052 99.4404 28.8483 99.4404 25.0241C99.4404 21.1999 102.252 18.1431 105.753 18.1431L105.751 18.1456ZM106.155 28.7982C108.037 28.7982 109.537 27.1682 109.537 25.0266C109.537 22.8851 108.037 21.2551 106.155 21.2551C104.273 21.2551 102.748 22.8851 102.748 25.0266C102.748 27.1682 104.248 28.7982 106.155 28.7982Z" fill="#1E1E1E"/>
<path d="M126.512 25.0016V22.1905H133.378C133.366 28.0459 129.956 31.9077 124.856 31.9077C119.755 31.9077 115.587 27.6522 115.587 22.2231C115.587 16.7939 119.639 12.5384 124.806 12.5384C127.985 12.5384 130.589 13.9603 131.938 16.5156L128.888 18.2233C127.898 16.7714 126.52 16.0291 124.829 16.0291C121.66 16.0291 119.23 18.7048 119.23 22.2205C119.23 25.7363 121.685 28.412 124.876 28.412C127.261 28.412 129.158 27.0855 129.542 25.0066" fill="#1E1E1E"/>
<path d="M136.314 18.5292H139.245V19.6251C139.937 18.6571 141.479 18.0754 142.644 18.0754C143.167 18.0754 143.715 18.2032 144.263 18.4314L142.954 21.6413C142.572 21.4632 142.334 21.3855 141.977 21.3855C140.643 21.3855 139.458 22.4513 139.458 24.4624V31.5215H136.314V18.5242V18.5292Z" fill="#1E1E1E"/>
<path d="M151.038 18.1456C154.802 18.1456 157.78 21.1774 157.78 25.0266C157.78 28.8759 154.802 31.9077 151.038 31.9077C147.274 31.9077 144.318 28.8509 144.318 25.0266C144.318 21.2024 147.296 18.1456 151.038 18.1456ZM151.038 28.7982C152.967 28.7982 154.445 27.1406 154.445 25.0266C154.445 22.9127 152.967 21.2551 151.038 21.2551C149.109 21.2551 147.631 22.9127 147.631 25.0266C147.631 27.1406 149.131 28.7982 151.038 28.7982Z" fill="#1E1E1E"/>
<path d="M158.298 18.5292H161.839L164.44 26.9651L167.115 18.5292H170.21L172.86 26.94L175.412 18.5292H178.729L174.519 31.5266H171.4L168.6 22.9377L165.853 31.5266H162.709L158.3 18.5292H158.298Z" fill="#1E1E1E"/>
<path d="M183.374 18.5543H185.199L188.91 28.6076H187.036L186.295 26.5413H182.181L181.415 28.6076H179.59L183.374 18.5543ZM185.662 24.806L184.251 20.909L182.816 24.806H185.662Z" fill="#1E1E1E"/>
<path d="M190.272 18.5543H192V28.6076H190.272V18.5543Z" fill="#1E1E1E"/>
<path d="M34.5676 33.3371C29.5093 33.3371 25.3833 29.3148 25.1452 24.2668V23.7352H22.021V24.4022C21.7185 29.385 17.6272 33.3321 12.621 33.3396V36.5394C16.3626 36.5319 19.7175 34.8768 22.021 32.2538V40H25.1452V32.2663C27.4512 34.8868 30.811 36.5394 34.5577 36.5394C34.5701 36.5394 34.5825 36.5394 34.5949 36.5394V33.3396C34.5949 33.3396 34.5775 33.3396 34.5676 33.3396V33.3371Z" fill="#1E1E1E"/>
<path d="M22.0235 7.12432H25.1477V3.81167C24.1063 3.45056 23.0649 3.57845 22.0235 3.59099V7.12432Z" fill="#1E1E1E"/>
<path d="M33.0129 14.5621V18.271H36.1371V14.6825C35.123 14.3038 34.0146 14.6298 33.0129 14.5621Z" fill="#1E1E1E"/>
<path d="M11.0217 18.271H14.1459V14.7376C13.1218 14.7426 12.016 14.7702 11.0217 14.9207V18.271Z" fill="#1E1E1E"/>
<path d="M36.0727 11.1667C35.309 4.87493 30.0027 0 23.5682 0C17.1338 0 11.8275 4.87492 11.0638 11.1692C4.84754 11.934 0.0272752 17.2679 0 23.7477H3.1788C3.20607 19.0559 6.5882 15.1715 11.0217 14.4116V15.0636C12.0135 14.9132 13.1194 14.8856 14.1459 14.8806V12.7365C14.1459 12.7365 14.1459 12.7365 14.1459 12.734C14.1459 8.00451 17.5553 4.0825 22.026 3.3327V3.65118C23.0674 3.63864 24.1088 3.51075 25.1502 3.87186V3.33521C29.6134 4.09002 33.0154 8.00953 33.0154 12.734C33.0154 12.734 33.0154 12.734 33.0154 12.7365V14.9207C34.0171 14.9884 35.123 14.6624 36.1396 15.0411V14.4041C40.5855 15.1564 43.9775 19.0458 44.0048 23.7452H47.1638C47.1365 17.2579 42.3038 11.919 36.0776 11.1642L36.0727 11.1667Z" fill="#1E1E1E"/>
<path d="M12.5689 17.8823C9.31572 17.8823 6.67746 20.5479 6.67746 23.833C6.67746 27.118 9.31572 29.7837 12.5689 29.7837C15.8221 29.7837 18.4603 27.118 18.4603 23.833C18.4603 20.5479 15.8221 17.8823 12.5689 17.8823ZM12.5689 26.599C11.0589 26.599 9.83147 25.3602 9.83147 23.8355C9.83147 22.3108 11.0564 21.072 12.5689 21.072C14.0814 21.072 15.3063 22.3108 15.3063 23.8355C15.3063 25.3602 14.0814 26.599 12.5689 26.599Z" fill="#1E1E1E"/>
<path d="M34.6048 17.8823C31.3516 17.8823 28.7133 20.5479 28.7133 23.833C28.7133 27.118 31.3516 29.7837 34.6048 29.7837C37.858 29.7837 40.4962 27.118 40.4962 23.833C40.4962 20.5479 37.858 17.8823 34.6048 17.8823ZM34.6048 26.599C33.0947 26.599 31.8673 25.3602 31.8673 23.8355C31.8673 22.3108 33.0922 21.072 34.6048 21.072C36.1173 21.072 37.3422 22.3108 37.3422 23.8355C37.3422 25.3602 36.1173 26.599 34.6048 26.599Z" fill="#1E1E1E"/>
<path d="M23.5856 6.71807C20.3324 6.71807 17.6942 9.38374 17.6942 12.6688C17.6942 15.9539 20.3324 18.6195 23.5856 18.6195C26.8388 18.6195 29.477 15.9539 29.477 12.6688C29.477 9.38374 26.8388 6.71807 23.5856 6.71807ZM23.5856 15.4348C22.0755 15.4348 20.8482 14.196 20.8482 12.6713C20.8482 11.1466 22.0731 9.90784 23.5856 9.90784C25.0981 9.90784 26.323 11.1466 26.323 12.6713C26.323 14.196 25.0981 15.4348 23.5856 15.4348Z" fill="#1E1E1E"/>
</svg>
